<?xml version="1.0" encoding="UTF-8"?>
<svg xmlns="http://www.w3.org/2000/svg" version="1.1" viewBox="0 0 1856.7 1983.6">
  <defs>
    <style>
      .cls-1 {
        fill: #8c818b;
      }

      .cls-2 {
        stroke-width: 34.5px;
      }

      .cls-2, .cls-3 {
        fill: none;
      }

      .cls-2, .cls-3, .cls-4, .cls-5 {
        stroke: #000;
        stroke-linecap: round;
        stroke-linejoin: round;
      }

      .cls-3, .cls-4, .cls-5 {
        stroke-width: 34.5px;
      }

      .cls-4, .cls-6 {
        fill: #9c8f9a;
      }

      .cls-7 {
        fill: #08c1c1;
      }

      .cls-5 {
        fill: #b3cbff;
      }
    </style>
  </defs>
  <!-- Generator: Adobe Illustrator 28.6.0, SVG Export Plug-In . SVG Version: 1.2.0 Build 709)  -->
  <g>
    <g id="Layer_1">
      <g>
        <path class="cls-7" d="M1670.9,1095c0,411.5-149.9,792.6-561.4,792.6S164.2,1492.6,164.2,1081.1,541.6,463.8,953.1,463.8s717.8,219.7,717.8,631.2Z"/>
        <g id="g25">
          <path id="path27" class="cls-3" d="M1254.2,1321.3c-33.5,0-60.7,27.2-60.7,60.7v70h121.4v-70c0-33.5-27.2-60.7-60.7-60.7Z"/>
        </g>
        <g id="g29">
          <path id="path31" class="cls-3" d="M964.8,1321.3c-33.5,0-60.7,27.2-60.7,60.7v70h121.4v-70c0-33.5-27.2-60.7-60.7-60.7Z"/>
        </g>
        <g id="g33">
          <path id="path35" class="cls-4" d="M962,1237.3c-79.2,1.5-141.9,67.9-141.9,147.1v67.6h84v-68.5c0-32.9,25.5-60.9,58.3-62.1,34.5-1.3,63,26.4,63,60.6v325.9c0,7.2,5.8,13,13,13h58c7.2,0,13-5.8,13-13v-325.9c0-80.7-66.4-146.2-147.5-144.7Z"/>
        </g>
        <g id="g37">
          <path id="path39" class="cls-4" d="M1306.9,1452h-197.4v78.4h197.4c21.7,0,39.2-17.6,39.2-39.2s-17.6-39.2-39.2-39.2Z"/>
        </g>
        <g id="g41">
          <path id="path43" class="cls-4" d="M1306.9,1608.8h-197.4v78.4h197.4c21.7,0,39.2-17.6,39.2-39.2s-17.6-39.2-39.2-39.2Z"/>
        </g>
        <g id="g45">
          <path id="path47" class="cls-4" d="M1251.4,1237.3c-79.2,1.5-141.9,67.9-141.9,147.1v67.6h84v-68.5c0-32.9,25.5-60.9,58.3-62.1,34.5-1.3,63,26.4,63,60.6v70.8c17.8,3.7,31.2,19.5,31.2,38.4s-13.4,34.7-31.2,38.4v80.1c17.8,3.7,31.2,19.5,31.2,38.4s-13.4,34.7-31.2,38.4v21.5c0,7.2,5.8,13,13,13h58c7.2,0,13-5.8,13-13v-325.9c0-80.7-66.4-146.2-147.5-144.7Z"/>
        </g>
        <g id="g61">
          <path id="path63" class="cls-5" d="M1040,654.9h-512.5c-10.1,0-18.5,7.6-19.5,17.6l-89.3,757.9c-.6,5.5,1.2,11,5,15.1,3.7,4.1,9,6.5,14.5,6.5h381.9v-70c0-79.8,64.9-144.7,144.7-144.7s144.7,64.9,144.7,144.7c0-79.8,64.9-144.7,144.7-144.7s144.7,64.9,144.7,144.7v70h89.3c5.5,0,10.8-2.3,14.5-6.5,3.7-4.1,5.5-9.6,5-15.1l-89.3-757.9c-1-10-9.4-17.6-19.5-17.6h-278.4"/>
        </g>
        <g id="g49">
          <path id="path51" class="cls-3" d="M739.4,1309c-29.3.4-58.8-11.8-79.4-36.7-4.4-5.3-12.4-5.3-16.8,0-21.1,25.5-51.4,37.7-81.3,36.6"/>
        </g>
        <g id="g53">
          <path id="path55" class="cls-3" d="M1188.9,1134.9c-32.8,4.2-67.3-7.8-90.6-35.9-4.4-5.3-12.4-5.3-16.8,0-40.5,49-115.2,48.9-155.6,0-4.4-5.3-12.4-5.3-16.8,0-40.5,48.9-115.1,49-155.6,0-4.4-5.3-12.4-5.3-16.8,0-23.2,28.1-57.7,40-90.6,35.9"/>
        </g>
        <g id="g65">
          <path id="path67" class="cls-3" d="M1548.6,1108.4l-54.1-462.8c-4-39.4-36.8-69.1-76.4-69.1H508.3c-39.6,0-72.5,29.7-76.4,69.1l-93.5,800.3c-4.6,45.3,31.1,84.5,76.4,84.5h610.7v-148.4c0-33.5-27.2-60.7-60.7-60.7s-60.7,27.2-60.7,60.7v70h-84v-70c0-79.8,64.9-144.7,144.7-144.7s144.7,64.9,144.7,144.7c0-79.8,64.9-144.7,144.7-144.7s144.7,64.9,144.7,144.7v148.4h112.7c45.5,0,81-39.4,76.4-84.5l-30-256.9"/>
        </g>
        <g id="g6426">
          <g id="g6428">
            <g id="g6430">
              <g id="g6436">
                <path id="path6438" class="cls-6" d="M732.7,962.3c50.3,0,77.3-40.3,77.3-40.3,0,0,27.1,40.3,77.4,40.3s77.4-40.3,77.4-40.3c0,0,27.1,40.3,77.4,40.3s77.3-40.3,77.3-40.3c0,0,27.1,40.3,77.4,40.3s24.3-2.7,34.1-6.6c-122.1-174.9-25.4-338.9,38.7-417.3,15.6-19.1,1-47.6-23.6-45.9-439.7,30.9-526.3,357.2-543,464.9,8.7,3,18.6,4.9,29.5,4.9"/>
              </g>
              <g id="g6440">
                <path id="path6442" class="cls-1" d="M1246.1,492.6c-2.6.2-5.2.4-7.8.6,4.8,9.9,4.4,22.3-3.7,32.3-67.3,82.3-168.2,253.1-47.9,436.3,3.3.4,6.7.6,10.3.6,12.9,0,24.3-2.7,34.1-6.6-122.1-174.9-25.4-338.9,38.7-417.3,15.6-19.1,1-47.6-23.6-45.9"/>
              </g>
              <g id="g6444">
                <path id="path6446" class="cls-2" d="M1351.8,962.3c-50.3,0-77.4-40.3-77.4-40.3,0,0-27.1,40.3-77.4,40.3s-77.4-40.3-77.4-40.3c0,0-27,40.3-77.3,40.3s-77.4-40.3-77.4-40.3c0,0-27.1,40.3-77.4,40.3s-77.4-40.3-77.4-40.3c0,0-27,40.3-77.3,40.3s-77.4-40.3-77.4-40.3c0,0-27.1,40.3-77.4,40.3"/>
              </g>
              <g id="g6448">
                <path id="path6450" class="cls-2" d="M1061.6,527.8c-281,94.2-344.5,339.2-358.5,429.7"/>
              </g>
              <g id="g6452">
                <path id="path6454" class="cls-2" d="M1173.8,806.7c-10.9-114.6,50.7-212.9,96-268.3,15.6-19.1,1-47.6-23.6-45.9-47.5,3.3-90.9,10.1-130.6,19.7"/>
              </g>
              <g id="g6456">
                <path id="path6458" class="cls-2" d="M1231,955.7c-22.2-31.8-37.2-63.2-46.4-93.9"/>
              </g>
            </g>
          </g>
        </g>
        <path class="cls-7" d="M1653.3,423.8c-28.9,44.5-58.6,51.7-103.1,22.8-44.5-28.9-53.5-61.3-24.6-105.8,28.9-44.5,52.5-55.6,97-26.8,44.5,28.9,59.6,65.3,30.8,109.7Z"/>
        <path class="cls-7" d="M1417.8,393.6c-33.7,51.9-68.5,60.4-120.4,26.6-51.9-33.7-36.4-99.5-28.8-123.6,7.6-24,61.4-65,113.3-31.3,51.9,33.7,69.7,76.2,35.9,128.2Z"/>
        <path class="cls-7" d="M1682.9,178.1c-18.9,29.1-38.3,33.8-67.4,14.9-29.1-18.9-35-40.1-16.1-69.2,18.9-29.1,34.3-36.4,63.4-17.5,29.1,18.9,39,42.7,20.1,71.8Z"/>
      </g>
    </g>
  </g>
</svg>