<?xml version="1.0" encoding="UTF-8"?>
<svg xmlns="http://www.w3.org/2000/svg" version="1.1" viewBox="0 0 2520.8 2221.4">
  <defs>
    <style>
      .cls-1 {
        fill: #8c818b;
      }

      .cls-2 {
        stroke-width: 22.8px;
      }

      .cls-2, .cls-3 {
        fill: none;
      }

      .cls-2, .cls-3, .cls-4, .cls-5 {
        stroke: #000;
        stroke-linecap: round;
        stroke-linejoin: round;
      }

      .cls-3, .cls-4, .cls-5 {
        stroke-width: 22.8px;
      }

      .cls-4, .cls-6 {
        fill: #9c8f9a;
      }

      .cls-7 {
        fill: #08c1c1;
      }

      .cls-8 {
        fill: #fff;
      }

      .cls-5 {
        fill: #b3cbff;
      }
    </style>
  </defs>
  <!-- Generator: Adobe Illustrator 28.6.0, SVG Export Plug-In . SVG Version: 1.2.0 Build 709)  -->
  <g>
    <g id="Layer_1">
      <g>
        <path class="cls-7" d="M1725.6,781.9c0,272-99.1,523.9-371.1,523.9s-624.8-261.1-624.8-533.1,249.5-408,521.5-408,474.4,145.2,474.4,417.2Z"/>
        <g id="g25">
          <path id="path27" class="cls-3" d="M1450.2,931.5c-22.1,0-40.1,18-40.1,40.1v46.3h80.2v-46.3c0-22.1-18-40.1-40.1-40.1Z"/>
        </g>
        <g id="g29">
          <path id="path31" class="cls-3" d="M1258.9,931.5c-22.1,0-40.1,18-40.1,40.1v46.3h80.2v-46.3c0-22.1-18-40.1-40.1-40.1Z"/>
        </g>
        <g id="g33">
          <path id="path35" class="cls-4" d="M1257,876c-52.4,1-93.8,44.9-93.8,97.2v44.7h55.5v-45.3c0-21.7,16.9-40.2,38.6-41.1,22.8-.9,41.7,17.4,41.7,40.1v215.4c0,4.7,3.8,8.6,8.6,8.6h38.3c4.7,0,8.6-3.8,8.6-8.6v-215.4c0-53.4-43.9-96.6-97.5-95.6Z"/>
        </g>
        <g id="g37">
          <path id="path39" class="cls-4" d="M1485,1017.9h-130.5v51.8h130.5c14.3,0,25.9-11.6,25.9-25.9s-11.6-25.9-25.9-25.9Z"/>
        </g>
        <g id="g41">
          <path id="path43" class="cls-4" d="M1485,1121.5h-130.5v51.8h130.5c14.3,0,25.9-11.6,25.9-25.9s-11.6-25.9-25.9-25.9Z"/>
        </g>
        <g id="g45">
          <path id="path47" class="cls-4" d="M1448.3,876c-52.4,1-93.8,44.9-93.8,97.2v44.7h55.5v-45.3c0-21.7,16.9-40.2,38.6-41.1,22.8-.9,41.7,17.5,41.7,40.1v46.8c11.8,2.4,20.6,12.9,20.6,25.4s-8.8,22.9-20.6,25.4v52.9c11.8,2.4,20.6,12.9,20.6,25.4s-8.8,22.9-20.6,25.4v14.2c0,4.7,3.8,8.6,8.6,8.6h38.3c4.7,0,8.6-3.8,8.6-8.6v-215.4c0-53.4-43.9-96.6-97.5-95.6Z"/>
        </g>
        <g id="g61">
          <path id="path63" class="cls-5" d="M1308.6,491h-338.7c-6.7,0-12.2,5-12.9,11.7l-59,500.9c-.4,3.6.8,7.3,3.3,10,2.5,2.7,5.9,4.3,9.6,4.3h252.4v-46.3c0-52.7,42.9-95.6,95.6-95.6s95.6,42.9,95.6,95.6c0-52.7,42.9-95.6,95.6-95.6s95.6,42.9,95.6,95.6v46.3h59c3.7,0,7.2-1.5,9.6-4.3,2.5-2.7,3.6-6.3,3.3-10l-59-500.9c-.7-6.6-6.2-11.7-12.9-11.7h-184"/>
        </g>
        <g id="g49">
          <path id="path51" class="cls-3" d="M1109.9,923.4c-19.4.3-38.8-7.8-52.5-24.2-2.9-3.5-8.2-3.5-11.1,0-13.9,16.8-34,24.9-53.8,24.2"/>
        </g>
        <g id="g53">
          <path id="path55" class="cls-3" d="M1407,808.3c-21.7,2.7-44.5-5.1-59.9-23.7-2.9-3.5-8.2-3.5-11.1,0-26.8,32.4-76.1,32.3-102.9,0-2.9-3.5-8.2-3.5-11.1,0-26.7,32.3-76.1,32.4-102.9,0-2.9-3.5-8.2-3.5-11.1,0-15.4,18.6-38.2,26.4-59.9,23.7"/>
        </g>
        <g id="g65">
          <path id="path67" class="cls-3" d="M1644.8,790.8l-35.7-305.9c-2.6-26.1-24.3-45.7-50.5-45.7h-601.3c-26.2,0-47.9,19.6-50.5,45.7l-61.8,529c-3,29.9,20.5,55.9,50.5,55.9h403.7v-98.1c0-22.1-18-40.1-40.1-40.1s-40.1,18-40.1,40.1v46.3h-55.5v-46.3c0-52.7,42.9-95.6,95.6-95.6s95.6,42.9,95.6,95.6c0-52.7,42.9-95.6,95.6-95.6s95.6,42.9,95.6,95.6v98.1h74.5c30.1,0,53.5-26,50.5-55.9l-19.8-169.8"/>
        </g>
        <g id="g6426">
          <g id="g6428">
            <g id="g6430">
              <g id="g6436">
                <path id="path6438" class="cls-6" d="M1105.4,694.2c33.3,0,51.1-26.6,51.1-26.6,0,0,17.9,26.6,51.2,26.6s51.2-26.6,51.2-26.6c0,0,17.9,26.6,51.2,26.6s51.1-26.6,51.1-26.6c0,0,17.9,26.6,51.2,26.6s16.1-1.8,22.5-4.4c-80.7-115.6-16.8-224,25.6-275.8,10.3-12.6.6-31.5-15.6-30.3-290.6,20.4-347.9,236.1-358.9,307.3,5.8,2,12.3,3.2,19.5,3.2"/>
              </g>
              <g id="g6440">
                <path id="path6442" class="cls-1" d="M1444.8,383.7c-1.7.1-3.5.3-5.2.4,3.2,6.5,2.9,14.7-2.5,21.3-44.5,54.4-111.2,167.3-31.7,288.4,2.2.2,4.5.4,6.8.4,8.5,0,16.1-1.8,22.5-4.4-80.7-115.6-16.8-224,25.6-275.8,10.3-12.6.6-31.5-15.6-30.3"/>
              </g>
              <g id="g6444">
                <path id="path6446" class="cls-2" d="M1514.7,694.2c-33.3,0-51.2-26.6-51.2-26.6,0,0-17.9,26.6-51.2,26.6s-51.2-26.6-51.2-26.6c0,0-17.8,26.6-51.1,26.6s-51.2-26.6-51.2-26.6c0,0-17.9,26.6-51.2,26.6s-51.2-26.6-51.2-26.6c0,0-17.8,26.6-51.1,26.6s-51.2-26.6-51.2-26.6c0,0-17.9,26.6-51.2,26.6"/>
              </g>
              <g id="g6448">
                <path id="path6450" class="cls-2" d="M1322.9,407c-185.7,62.2-227.7,224.2-236.9,284"/>
              </g>
              <g id="g6452">
                <path id="path6454" class="cls-2" d="M1397,591.4c-7.2-75.8,33.5-140.7,63.4-177.3,10.3-12.6.6-31.5-15.6-30.3-31.4,2.2-60.1,6.7-86.3,13"/>
              </g>
              <g id="g6456">
                <path id="path6458" class="cls-2" d="M1434.9,689.9c-14.7-21-24.6-41.8-30.7-62"/>
              </g>
            </g>
          </g>
        </g>
        <path class="cls-7" d="M1713.9,338.3c-19.1,29.4-38.8,34.2-68.2,15.1-29.4-19.1-35.4-40.5-16.3-69.9,19.1-29.4,34.7-36.8,64.1-17.7,29.4,19.1,39.4,43.1,20.3,72.5Z"/>
        <path class="cls-7" d="M1558.3,318.4c-22.3,34.3-45.3,39.9-79.6,17.6-34.3-22.3-24-65.8-19-81.7,5-15.9,40.6-43,74.9-20.7,34.3,22.3,46,50.4,23.7,84.7Z"/>
        <path class="cls-7" d="M1733.5,175.9c-12.5,19.2-25.3,22.3-44.6,9.8-19.2-12.5-23.1-26.5-10.7-45.7,12.5-19.2,22.7-24,41.9-11.6,19.2,12.5,25.8,28.2,13.3,47.4Z"/>
      </g>
      <g>
        <path class="cls-8" d="M91,2102.7v-524.1h164.5v403.7h185.9l-7.6,120.4H91Z"/>
        <path class="cls-8" d="M457,2102.7l144.7-524.1h246.8l151.6,524.1h-186.6l-19.8-100.6h-135.6l-22.1,100.6h-179ZM674.1,1908.4h101.3l-49.5-229.3-51.8,229.3Z"/>
        <path class="cls-8" d="M1264.9,2114.9c-54.8,0-102.7-11-143.6-33.1-40.9-22.1-72.6-53.2-95.2-93.3-22.6-40.1-33.9-86.8-33.9-140.2s11.8-103.3,35.4-145.5c23.6-42.1,56.1-75.3,97.5-99.4,41.4-24.1,89-36.2,142.8-36.2s106.9,11.7,140.9,35l-20.6,121.1c-14.7-7.1-30.1-12.3-46.1-15.6-16-3.3-31.1-5-45.3-5-41.6,0-74.4,12.5-98.3,37.3-23.9,24.9-35.8,59.4-35.8,103.6s11.5,74.3,34.7,97.9c23.1,23.6,55.2,35.4,96.4,35.4s31.1-1.5,44.6-4.6c13.5-3,30.1-8.6,49.9-16.8l21.3,120.4c-44.2,25.9-92.4,38.9-144.7,38.9Z"/>
        <path class="cls-8" d="M1702.3,2114.9c-50.8,0-95.5-9.1-134.1-27.4-38.6-18.3-68.6-44.6-89.9-78.8-21.3-34.3-32-75.3-32-123v-307h169.1v299.4c0,34,8.2,59,24.8,75,16.5,16,38.2,24,65.1,24s50.1-8.1,65.1-24.4c15-16.2,22.5-38.6,22.5-67v-307h171.4v307c0,45.2-11.2,85.1-33.5,119.6-22.4,34.5-53.2,61.5-92.6,80.7-39.4,19.3-84.7,28.9-136,28.9Z"/>
        <path class="cls-8" d="M2193.5,2114.9c-32,0-64.5-3.9-97.5-11.8-33-7.9-60.9-18.4-83.8-31.6l27.4-124.2c29.4,15.7,57,26,82.7,30.9,25.6,4.8,49.4,7.2,71.2,7.2s35.7-3.3,46.1-9.9c10.4-6.6,15.6-15.5,15.6-26.7s-5.8-18.2-17.5-24c-11.7-5.8-26.8-11.3-45.3-16.4-18.5-5.1-38.2-11-59-17.9-20.8-6.9-40.5-16-59-27.4-18.5-11.4-33.6-26.7-45.3-45.7-11.7-19-17.5-43-17.5-72s8.9-68.2,26.7-94.8c17.8-26.7,43.2-47.2,76.2-61.7,33-14.5,71.9-21.7,116.6-21.7s59.3,3.9,88,11.8c28.7,7.9,51.7,18.4,68.9,31.6l-25.9,112c-25.9-10.7-49.1-18.4-69.7-23.2-20.6-4.8-40-7.2-58.3-7.2s-37.6,3-48.8,9.1c-11.2,6.1-16.8,14.2-16.8,24.4s5.8,17.5,17.5,23.6c11.7,6.1,26.7,11.9,44.9,17.5,18.3,5.6,37.8,11.9,58.7,19,20.8,7.1,40.4,16.5,58.7,28.2,18.3,11.7,33.3,26.9,44.9,45.7,11.7,18.8,17.5,42.4,17.5,70.8,0,58.9-19.2,104.4-57.5,136.4-38.4,32-91.5,48-159.6,48Z"/>
      </g>
    </g>
  </g>
</svg>