<?xml version="1.0" encoding="UTF-8"?>
<svg xmlns="http://www.w3.org/2000/svg" version="1.1" viewBox="0 0 3469.2 1268.8">
  <defs>
    <style>
      .cls-1 {
        fill: #8c818b;
      }

      .cls-2 {
        stroke-width: 20px;
      }

      .cls-2, .cls-3 {
        fill: none;
      }

      .cls-2, .cls-3, .cls-4, .cls-5 {
        stroke: #000;
        stroke-linecap: round;
        stroke-linejoin: round;
      }

      .cls-3, .cls-4, .cls-5 {
        stroke-width: 20px;
      }

      .cls-4, .cls-6 {
        fill: #9c8f9a;
      }

      .cls-7 {
        fill: #08c1c1;
      }

      .cls-8 {
        fill: #fff;
      }

      .cls-5 {
        fill: #b3cbff;
      }
    </style>
  </defs>
  <!-- Generator: Adobe Illustrator 28.6.0, SVG Export Plug-In . SVG Version: 1.2.0 Build 709)  -->
  <g>
    <g id="Layer_1">
      <g>
        <path class="cls-7" d="M1053,691.8c0,238.3-86.8,459-325.1,459S180.5,922,180.5,683.8s218.6-357.4,456.8-357.4,415.6,127.2,415.6,365.5Z"/>
        <g id="g25">
          <path id="path27" class="cls-3" d="M811.7,822.9c-19.4,0-35.1,15.8-35.1,35.1v40.5h70.3v-40.5c0-19.4-15.8-35.1-35.1-35.1Z"/>
        </g>
        <g id="g29">
          <path id="path31" class="cls-3" d="M644.1,822.9c-19.4,0-35.1,15.8-35.1,35.1v40.5h70.3v-40.5c0-19.4-15.8-35.1-35.1-35.1Z"/>
        </g>
        <g id="g33">
          <path id="path35" class="cls-4" d="M642.5,774.2c-45.9.9-82.2,39.3-82.2,85.2v39.1h48.7v-39.7c0-19,14.8-35.3,33.8-36,20-.8,36.5,15.3,36.5,35.1v188.7c0,4.2,3.4,7.5,7.5,7.5h33.6c4.2,0,7.5-3.4,7.5-7.5v-188.7c0-46.7-38.5-84.7-85.4-83.8Z"/>
        </g>
        <g id="g37">
          <path id="path39" class="cls-4" d="M842.2,898.5h-114.3v45.4h114.3c12.5,0,22.7-10.2,22.7-22.7s-10.2-22.7-22.7-22.7Z"/>
        </g>
        <g id="g41">
          <path id="path43" class="cls-4" d="M842.2,989.3h-114.3v45.4h114.3c12.5,0,22.7-10.2,22.7-22.7s-10.2-22.7-22.7-22.7Z"/>
        </g>
        <g id="g45">
          <path id="path47" class="cls-4" d="M810.1,774.2c-45.9.9-82.2,39.3-82.2,85.2v39.1h48.7v-39.7c0-19,14.8-35.3,33.8-36,20-.8,36.5,15.3,36.5,35.1v41c10.3,2.1,18.1,11.3,18.1,22.2s-7.7,20.1-18.1,22.2v46.4c10.3,2.1,18.1,11.3,18.1,22.2s-7.7,20.1-18.1,22.2v12.4c0,4.2,3.4,7.5,7.5,7.5h33.6c4.2,0,7.5-3.4,7.5-7.5v-188.7c0-46.7-38.5-84.7-85.4-83.8Z"/>
        </g>
        <g id="g61">
          <path id="path63" class="cls-5" d="M687.6,437h-296.7c-5.8,0-10.7,4.4-11.3,10.2l-51.7,438.8c-.3,3.2.7,6.4,2.9,8.8,2.2,2.4,5.2,3.7,8.4,3.7h221.1v-40.5c0-46.2,37.6-83.8,83.8-83.8s83.8,37.6,83.8,83.8c0-46.2,37.6-83.8,83.8-83.8s83.8,37.6,83.8,83.8v40.5h51.7c3.2,0,6.3-1.4,8.4-3.7,2.2-2.4,3.2-5.6,2.9-8.8l-51.7-438.8c-.6-5.8-5.5-10.2-11.3-10.2h-161.2"/>
        </g>
        <g id="g49">
          <path id="path51" class="cls-3" d="M513.6,815.8c-17,.3-34-6.8-46-21.2-2.5-3.1-7.2-3.1-9.7,0-12.2,14.7-29.8,21.8-47.1,21.2"/>
        </g>
        <g id="g53">
          <path id="path55" class="cls-3" d="M773.9,714.9c-19,2.4-39-4.5-52.4-20.8-2.5-3.1-7.2-3.1-9.7,0-23.5,28.4-66.7,28.3-90.1,0-2.5-3.1-7.2-3.1-9.7,0-23.4,28.3-66.7,28.4-90.1,0-2.5-3.1-7.2-3.1-9.7,0-13.5,16.3-33.4,23.2-52.4,20.8"/>
        </g>
        <g id="g65">
          <path id="path67" class="cls-3" d="M982.2,699.6l-31.3-268c-2.3-22.8-21.3-40-44.3-40H379.8c-22.9,0-42,17.2-44.3,40l-54.2,463.4c-2.6,26.2,18,48.9,44.3,48.9h353.6v-85.9c0-19.4-15.8-35.1-35.1-35.1s-35.1,15.8-35.1,35.1v40.5h-48.7v-40.5c0-46.2,37.6-83.8,83.8-83.8s83.8,37.6,83.8,83.8c0-46.2,37.6-83.8,83.8-83.8s83.8,37.6,83.8,83.8v85.9h65.3c26.4,0,46.9-22.8,44.3-48.9l-17.4-148.8"/>
        </g>
        <g id="g6426">
          <g id="g6428">
            <g id="g6430">
              <g id="g6436">
                <path id="path6438" class="cls-6" d="M509.7,615c29.1,0,44.8-23.3,44.8-23.3,0,0,15.7,23.3,44.8,23.3s44.8-23.3,44.8-23.3c0,0,15.7,23.3,44.8,23.3s44.8-23.3,44.8-23.3c0,0,15.7,23.3,44.8,23.3s14.1-1.5,19.7-3.8c-70.7-101.3-14.7-196.2,22.4-241.6,9-11,.6-27.6-13.7-26.6-254.6,17.9-304.8,206.8-314.4,269.2,5,1.7,10.8,2.8,17.1,2.8"/>
              </g>
              <g id="g6440">
                <path id="path6442" class="cls-1" d="M807,343c-1.5.1-3,.2-4.5.3,2.8,5.7,2.6,12.9-2.2,18.7-38.9,47.7-97.4,146.5-27.7,252.6,1.9.2,3.9.3,6,.3,7.5,0,14.1-1.5,19.7-3.8-70.7-101.3-14.7-196.2,22.4-241.6,9-11,.6-27.6-13.7-26.6"/>
              </g>
              <g id="g6444">
                <path id="path6446" class="cls-2" d="M868.2,615c-29.2,0-44.8-23.3-44.8-23.3,0,0-15.7,23.3-44.8,23.3s-44.8-23.3-44.8-23.3c0,0-15.6,23.3-44.8,23.3s-44.8-23.3-44.8-23.3c0,0-15.7,23.3-44.8,23.3s-44.8-23.3-44.8-23.3c0,0-15.6,23.3-44.8,23.3s-44.8-23.3-44.8-23.3c0,0-15.7,23.3-44.8,23.3"/>
              </g>
              <g id="g6448">
                <path id="path6450" class="cls-2" d="M700.2,363.4c-162.7,54.5-199.5,196.4-207.6,248.8"/>
              </g>
              <g id="g6452">
                <path id="path6454" class="cls-2" d="M765.1,524.9c-6.3-66.4,29.3-123.3,55.6-155.4,9-11,.6-27.6-13.7-26.6-27.5,1.9-52.7,5.9-75.6,11.4"/>
              </g>
              <g id="g6456">
                <path id="path6458" class="cls-2" d="M798.3,611.2c-12.9-18.4-21.5-36.6-26.9-54.4"/>
              </g>
            </g>
          </g>
        </g>
        <path class="cls-7" d="M1042.8,303.1c-16.7,25.8-34,29.9-59.7,13.2-25.8-16.7-31-35.5-14.3-61.3,16.7-25.8,30.4-32.2,56.2-15.5,25.8,16.7,34.5,37.8,17.8,63.5Z"/>
        <path class="cls-7" d="M906.4,285.7c-19.5,30.1-39.7,35-69.7,15.4-30.1-19.5-21.1-57.6-16.7-71.5,4.4-13.9,35.5-37.6,65.6-18.1,30.1,19.5,40.3,44.1,20.8,74.2Z"/>
        <path class="cls-7" d="M1059.9,160.9c-10.9,16.8-22.2,19.6-39,8.6-16.8-10.9-20.3-23.2-9.3-40,10.9-16.8,19.9-21.1,36.7-10.1,16.8,10.9,22.6,24.7,11.6,41.5Z"/>
        <g>
          <path class="cls-8" d="M1247.8,907.9v-459.2h144.2v353.7h162.8l-6.7,105.4h-300.3Z"/>
          <path class="cls-8" d="M1568.5,907.9l126.8-459.2h216.2l132.8,459.2h-163.5l-17.4-88.1h-118.8l-19.4,88.1h-156.8ZM1758.7,737.7h88.8l-43.4-200.9-45.4,200.9Z"/>
          <path class="cls-8" d="M2276.3,918.5c-48.1,0-90-9.7-125.8-29-35.8-19.4-63.6-46.6-83.4-81.8-19.8-35.1-29.7-76.1-29.7-122.8s10.3-90.5,31-127.5c20.7-36.9,49.2-66,85.4-87.1,36.3-21.1,78-31.7,125.1-31.7s93.7,10.2,123.5,30.7l-18,106.1c-12.9-6.2-26.4-10.8-40.4-13.7-14-2.9-27.3-4.3-39.7-4.3-36.5,0-65.2,10.9-86.1,32.7-20.9,21.8-31.4,52.1-31.4,90.8s10.1,65.1,30.4,85.8c20.2,20.7,48.4,31,84.4,31s27.2-1.3,39-4c11.8-2.7,26.4-7.6,43.7-14.7l18.7,105.4c-38.7,22.7-81,34-126.8,34Z"/>
          <path class="cls-8" d="M2659.4,918.5c-44.5,0-83.7-8-117.5-24-33.8-16-60.1-39-78.8-69.1-18.7-30-28-66-28-107.8v-269h148.2v262.3c0,29.8,7.2,51.7,21.7,65.7,14.5,14,33.5,21,57.1,21s43.9-7.1,57.1-21.4c13.1-14.2,19.7-33.8,19.7-58.7v-269h150.2v269c0,39.6-9.8,74.5-29.4,104.8-19.6,30.3-46.6,53.8-81.1,70.7-34.5,16.9-74.2,25.4-119.1,25.4Z"/>
          <path class="cls-8" d="M3089.8,918.5c-28,0-56.5-3.5-85.4-10.3-28.9-6.9-53.4-16.1-73.4-27.7l24-108.8c25.8,13.8,49.9,22.8,72.4,27,22.5,4.2,43.3,6.3,62.4,6.3s31.3-2.9,40.4-8.7c9.1-5.8,13.7-13.6,13.7-23.4s-5.1-15.9-15.3-21c-10.2-5.1-23.5-9.9-39.7-14.3-16.2-4.4-33.5-9.7-51.7-15.7-18.2-6-35.5-14-51.7-24-16.2-10-29.5-23.4-39.7-40-10.2-16.7-15.3-37.7-15.3-63.1s7.8-59.7,23.4-83.1c15.6-23.4,37.8-41.4,66.7-54.1,28.9-12.7,63-19,102.1-19s51.9,3.5,77.1,10.3c25.1,6.9,45.3,16.1,60.4,27.7l-22.7,98.1c-22.7-9.3-43-16.1-61.1-20.4-18-4.2-35-6.3-51.1-6.3s-32.9,2.7-42.7,8c-9.8,5.3-14.7,12.5-14.7,21.4s5.1,15.3,15.3,20.7c10.2,5.3,23.4,10.5,39.4,15.3,16,4.9,33.1,10.5,51.4,16.7,18.2,6.2,35.4,14.5,51.4,24.7,16,10.2,29.1,23.6,39.4,40,10.2,16.5,15.3,37.2,15.3,62.1,0,51.6-16.8,91.4-50.4,119.5-33.6,28-80.2,42-139.8,42Z"/>
        </g>
      </g>
    </g>
  </g>
</svg>